# xmcd CD database file
#
# Track frame offsets:
#	150
#	12052
#	19435
#	38835
#	68047
#	85860
#	105855
#	128365
#	161915
#
# Disc length: 2437 seconds
#
# Revision: 0
# Processed by: cddbd v1.5.1PL0 Copyright (c) Steve Scherf et al.
# Submitted via: CDex 1.51
#
DISCID=61098309
DTITLE=ゆらゆら帝国 - 1998-2004 Disc2
DYEAR=2004
DGENRE=Rock
TTITLE0=パイオニア(Alternate Version)
TTITLE1=グレープフルーツちょうだい(Alternate Mix)
TTITLE2=うそが本当に(Alternate Version)
TTITLE3=恋がしたい(Kaori Takeda Solo Version)
TTITLE4=バンドをやってる友だち(Demo)
TTITLE5=ボーンズ(Fuko&Sakamoto Duet Version)
TTITLE6=少年は夢の中(Alternate Mix)
TTITLE7=太陽の白い粉(Alternate Mix)
TTITLE8=イエスタデイ・ワンス・モア
EXTD=YEAR: 2004
EXTT0=
EXTT1=
EXTT2=
EXTT3=
EXTT4=
EXTT5=
EXTT6=
EXTT7=
EXTT8=
PLAYORDER=
